<?xml version="1.0" encoding="UTF-8" standalone="no"?>
<svg
   viewBox="0 0 309.27502 309.27701"
   xml:space="preserve"
   style="clip-rule:evenodd;fill-rule:evenodd;stroke-linejoin:round;stroke-miterlimit:1.41421"
   version="1.1"
   id="svg4"
   width="309.27502"
   height="309.27701"
   xmlns="http://www.w3.org/2000/svg"
   xmlns:svg="http://www.w3.org/2000/svg"><path
     d="m 217.32501,178.228 c 0,0 -129.687997,25.986 -216.2939968,-41.537 4.594,-39.67 24.2269998,-74.787 53.0429998,-99.49 -0.794,-8.287 -0.937,-15.736 -0.667,-24.136 8.549,1.235 17.053,3.698 24.476,7.326 C 100.50301,7.419 126.71101,0 154.63501,0 c 28.085,0 54.429,7.502 77.141,20.611 6.062,-3.459 11.978,-5.869 18.697,-8.243 1.498,7.609 2.223,15.52 2.415,22.89 34.428,28.373 56.387,71.333 56.387,119.38 0,85.35 -69.289,154.639 -154.639,154.639 C 69.291013,309.277 -0.03498675,239.962 1.3246773e-5,154.637 2.9630132,156.706 97.664013,221.777 217.32501,178.226 Z m -140.243997,78.447 19.83,32.44 C 53.522013,275.955 9.8540132,218.857 5.9410132,165.119 40.812013,187.423 82.386013,199.287 121.52401,200.384 l -31.475997,10.087 c 10.695997,6.629 23.123997,14.63 34.379997,21.323 -16.243,-0.561 -32.486997,-1.111 -48.730997,-1.665 l 42.111997,28.539 z m 93.856997,-92.667 c 0,0 15.107,-25.406 44.368,-17.03 0,0 -15.198,23.433 -44.368,17.03 z m -37.198,0 c 0,0 -15.107,-25.406 -44.367997,-17.03 0,0 15.197997,23.433 44.367997,17.03 z m 77.67,-117.611 c 5.739,11.972 19.202,17.296 30.25,18.521 4.709,-13.633 4.509,-28.516 2.952,-42.432 -13.018,5.596 -24.901,14.018 -33.202,23.911 z M 67.210013,64.298 c 7.861,-1.54 14.791,-4.812 19.978,-9.295 3.939,-3.404 6.873,-7.507 8.445,-12.08 -9.149,-10.68 -21.968,-17.751 -34.992,-20.935 0.257,14.974 1.966,30.297 6.569,42.31 z"
     style="fill:url(#_Radial1)"
     id="path1" /><defs
     id="defs4"><radialGradient
       id="_Radial1"
       cx="0"
       cy="0"
       r="1"
       gradientUnits="userSpaceOnUse"
       gradientTransform="matrix(309.277,0,0,309.277,154.63701,241.236)"><stop
         offset="0"
         style="stop-color:#00cbf2;stop-opacity:1"
         id="stop2" /><stop
         offset=".57"
         style="stop-color:#5352d9;stop-opacity:1"
         id="stop3" /><stop
         offset="1"
         style="stop-color:#781bce;stop-opacity:1"
         id="stop4" /></radialGradient></defs></svg>
